# Blender v2.80 (sub 55) OBJ File: ''
# www.blender.org
mtllib gizmo.mtl
o Cylinder.002
v 0.000000 0.100000 0.000000
v 1.000000 0.039753 -0.000000
v -0.000000 0.092388 -0.038268
v 1.000000 0.036727 -0.015213
v -0.000000 0.070711 -0.070711
v 1.000000 0.028110 -0.028110
v -0.000000 0.038268 -0.092388
v 1.000000 0.015213 -0.036727
v -0.000000 -0.000000 -0.100000
v 1.000000 -0.000000 -0.039753
v -0.000000 -0.038268 -0.092388
v 1.000000 -0.015213 -0.036727
v -0.000000 -0.070711 -0.070711
v 1.000000 -0.028110 -0.028110
v -0.000000 -0.092388 -0.038268
v 1.000000 -0.036727 -0.015213
v 0.000000 -0.100000 0.000000
v 1.000000 -0.039753 -0.000000
v 0.000000 -0.092388 0.038268
v 1.000000 -0.036727 0.015213
v 0.000000 -0.070711 0.070711
v 1.000000 -0.028110 0.028110
v 0.000000 -0.038268 0.092388
v 1.000000 -0.015213 0.036727
v 0.000000 0.000000 0.100000
v 1.000000 -0.000000 0.039753
v 0.000000 0.038268 0.092388
v 1.000000 0.015213 0.036727
v 0.000000 0.070711 0.070711
v 1.000000 0.028110 0.028110
v 0.000000 0.092388 0.038268
v 1.000000 0.036727 0.015213
v 0.000000 0.100000 -0.000000
v 0.000000 0.675116 1.000000
v 0.038268 0.092388 -0.000000
v 0.258356 0.623726 1.000000
v 0.070711 0.070711 -0.000000
v 0.477379 0.477379 1.000000
v 0.092388 0.038268 -0.000000
v 0.623726 0.258356 1.000000
v 0.100000 -0.000000 -0.000000
v 0.675116 -0.000000 1.000000
v 0.092388 -0.038268 -0.000000
v 0.623726 -0.258356 1.000000
v 0.070711 -0.070711 -0.000000
v 0.477379 -0.477379 1.000000
v 0.038268 -0.092388 -0.000000
v 0.258356 -0.623726 1.000000
v 0.000000 -0.100000 -0.000000
v 0.000000 -0.675116 1.000000
v -0.038268 -0.092388 -0.000000
v -0.258356 -0.623726 1.000000
v -0.070711 -0.070711 -0.000000
v -0.477379 -0.477380 1.000000
v -0.092388 -0.038268 -0.000000
v -0.623726 -0.258356 1.000000
v -0.100000 0.000000 -0.000000
v -0.675117 0.000000 1.000000
v -0.092388 0.038268 -0.000000
v -0.623726 0.258356 1.000000
v -0.070711 0.070711 -0.000000
v -0.477379 0.477380 1.000000
v -0.038268 0.092388 -0.000000
v -0.258356 0.623726 1.000000
v 0.000000 1.000000 0.100000
v 0.000000 0.000000 0.100000
v 0.038268 1.000000 0.092388
v 0.038268 0.000000 0.092388
v 0.070711 1.000000 0.070711
v 0.070711 0.000000 0.070711
v 0.092388 1.000000 0.038268
v 0.092388 0.000000 0.038268
v 0.100000 1.000000 0.000000
v 0.100000 0.000000 -0.000000
v 0.092388 1.000000 -0.038268
v 0.092388 0.000000 -0.038268
v 0.070711 1.000000 -0.070711
v 0.070711 0.000000 -0.070711
v 0.038268 1.000000 -0.092388
v 0.038268 0.000000 -0.092388
v 0.000000 1.000000 -0.100000
v 0.000000 0.000000 -0.100000
v -0.038268 1.000000 -0.092388
v -0.038268 0.000000 -0.092388
v -0.070711 1.000000 -0.070711
v -0.070711 0.000000 -0.070711
v -0.092388 1.000000 -0.038268
v -0.092388 0.000000 -0.038268
v -0.100000 1.000000 0.000000
v -0.100000 0.000000 -0.000000
v -0.092388 1.000000 0.038268
v -0.092388 0.000000 0.038268
v -0.070711 1.000000 0.070711
v -0.070711 0.000000 0.070711
v -0.038268 1.000000 0.092388
v -0.038268 0.000000 0.092388
vt 1.000000 0.500000
vt 1.000000 1.000000
vt 0.937500 1.000000
vt 0.937500 0.500000
vt 0.875000 1.000000
vt 0.875000 0.500000
vt 0.812500 1.000000
vt 0.812500 0.500000
vt 0.750000 1.000000
vt 0.750000 0.500000
vt 0.687500 1.000000
vt 0.687500 0.500000
vt 0.625000 1.000000
vt 0.625000 0.500000
vt 0.562500 1.000000
vt 0.562500 0.500000
vt 0.500000 1.000000
vt 0.500000 0.500000
vt 0.437500 1.000000
vt 0.437500 0.500000
vt 0.375000 1.000000
vt 0.375000 0.500000
vt 0.312500 1.000000
vt 0.312500 0.500000
vt 0.250000 1.000000
vt 0.250000 0.500000
vt 0.187500 1.000000
vt 0.187500 0.500000
vt 0.125000 1.000000
vt 0.125000 0.500000
vt 0.341844 0.471731
vt 0.250000 0.490000
vt 0.158156 0.471731
vt 0.080294 0.419706
vt 0.028269 0.341844
vt 0.010000 0.250000
vt 0.028269 0.158156
vt 0.080294 0.080294
vt 0.158156 0.028269
vt 0.250000 0.010000
vt 0.341844 0.028269
vt 0.419706 0.080294
vt 0.471731 0.158156
vt 0.490000 0.250000
vt 0.471731 0.341844
vt 0.419706 0.419706
vt 0.062500 1.000000
vt 0.062500 0.500000
vt 0.000000 1.000000
vt 0.000000 0.500000
vt 0.750000 0.490000
vt 0.841844 0.471731
vt 0.919706 0.419706
vt 0.971731 0.341844
vt 0.990000 0.250000
vt 0.971731 0.158156
vt 0.919706 0.080294
vt 0.841844 0.028269
vt 0.750000 0.010000
vt 0.658156 0.028269
vt 0.580294 0.080294
vt 0.528269 0.158156
vt 0.510000 0.250000
vt 0.528269 0.341844
vt 0.580294 0.419706
vt 0.658156 0.471731
vt 1.000000 0.500000
vt 1.000000 1.000000
vt 0.937500 1.000000
vt 0.937500 0.500000
vt 0.875000 1.000000
vt 0.875000 0.500000
vt 0.812500 1.000000
vt 0.812500 0.500000
vt 0.750000 1.000000
vt 0.750000 0.500000
vt 0.687500 1.000000
vt 0.687500 0.500000
vt 0.625000 1.000000
vt 0.625000 0.500000
vt 0.562500 1.000000
vt 0.562500 0.500000
vt 0.500000 1.000000
vt 0.500000 0.500000
vt 0.437500 1.000000
vt 0.437500 0.500000
vt 0.375000 1.000000
vt 0.375000 0.500000
vt 0.312500 1.000000
vt 0.312500 0.500000
vt 0.250000 1.000000
vt 0.250000 0.500000
vt 0.187500 1.000000
vt 0.187500 0.500000
vt 0.125000 1.000000
vt 0.125000 0.500000
vt 0.341844 0.471731
vt 0.250000 0.490000
vt 0.158156 0.471731
vt 0.080294 0.419706
vt 0.028269 0.341844
vt 0.010000 0.250000
vt 0.028269 0.158156
vt 0.080294 0.080294
vt 0.158156 0.028269
vt 0.250000 0.010000
vt 0.341844 0.028269
vt 0.419706 0.080294
vt 0.471731 0.158156
vt 0.490000 0.250000
vt 0.471731 0.341844
vt 0.419706 0.419706
vt 0.062500 1.000000
vt 0.062500 0.500000
vt 0.000000 1.000000
vt 0.000000 0.500000
vt 0.750000 0.490000
vt 0.841844 0.471731
vt 0.919706 0.419706
vt 0.971731 0.341844
vt 0.990000 0.250000
vt 0.971731 0.158156
vt 0.919706 0.080294
vt 0.841844 0.028269
vt 0.750000 0.010000
vt 0.658156 0.028269
vt 0.580294 0.080294
vt 0.528269 0.158156
vt 0.510000 0.250000
vt 0.528269 0.341844
vt 0.580294 0.419706
vt 0.658156 0.471731
vt 1.000000 0.500000
vt 1.000000 1.000000
vt 0.937500 1.000000
vt 0.937500 0.500000
vt 0.875000 1.000000
vt 0.875000 0.500000
vt 0.812500 1.000000
vt 0.812500 0.500000
vt 0.750000 1.000000
vt 0.750000 0.500000
vt 0.687500 1.000000
vt 0.687500 0.500000
vt 0.625000 1.000000
vt 0.625000 0.500000
vt 0.562500 1.000000
vt 0.562500 0.500000
vt 0.500000 1.000000
vt 0.500000 0.500000
vt 0.437500 1.000000
vt 0.437500 0.500000
vt 0.375000 1.000000
vt 0.375000 0.500000
vt 0.312500 1.000000
vt 0.312500 0.500000
vt 0.250000 1.000000
vt 0.250000 0.500000
vt 0.187500 1.000000
vt 0.187500 0.500000
vt 0.125000 1.000000
vt 0.125000 0.500000
vt 0.341844 0.471731
vt 0.250000 0.490000
vt 0.158156 0.471731
vt 0.080294 0.419706
vt 0.028269 0.341844
vt 0.010000 0.250000
vt 0.028269 0.158156
vt 0.080294 0.080294
vt 0.158156 0.028269
vt 0.250000 0.010000
vt 0.341844 0.028269
vt 0.419706 0.080294
vt 0.471731 0.158156
vt 0.490000 0.250000
vt 0.471731 0.341844
vt 0.419706 0.419706
vt 0.062500 1.000000
vt 0.062500 0.500000
vt 0.000000 1.000000
vt 0.000000 0.500000
vt 0.750000 0.490000
vt 0.841844 0.471731
vt 0.919706 0.419706
vt 0.971731 0.341844
vt 0.990000 0.250000
vt 0.971731 0.158156
vt 0.919706 0.080294
vt 0.841844 0.028269
vt 0.750000 0.010000
vt 0.658156 0.028269
vt 0.580294 0.080294
vt 0.528269 0.158156
vt 0.510000 0.250000
vt 0.528269 0.341844
vt 0.580294 0.419706
vt 0.658156 0.471731
vn 0.0590 0.9791 -0.1948
vn 0.0590 0.8300 -0.5546
vn 0.0590 0.5546 -0.8300
vn 0.0590 0.1948 -0.9791
vn 0.0590 -0.1948 -0.9791
vn 0.0590 -0.5546 -0.8300
vn 0.0590 -0.8300 -0.5546
vn 0.0590 -0.9791 -0.1948
vn 0.0590 -0.9791 0.1948
vn 0.0590 -0.8300 0.5546
vn 0.0590 -0.5546 0.8300
vn 0.0590 -0.1948 0.9791
vn 0.0590 0.1948 0.9791
vn 0.0590 0.5546 0.8300
vn 1.0000 -0.0000 0.0000
vn 0.0590 0.8300 0.5546
vn 0.0590 0.9791 0.1948
vn -1.0000 0.0000 0.0000
vn 0.1699 0.8543 -0.4913
vn 0.4839 0.7242 -0.4913
vn 0.7242 0.4839 -0.4913
vn 0.8543 0.1699 -0.4913
vn 0.8543 -0.1699 -0.4913
vn 0.7242 -0.4839 -0.4913
vn 0.4839 -0.7242 -0.4913
vn 0.1699 -0.8543 -0.4913
vn -0.1699 -0.8543 -0.4913
vn -0.4839 -0.7242 -0.4913
vn -0.7242 -0.4839 -0.4913
vn -0.8543 -0.1699 -0.4913
vn -0.8543 0.1699 -0.4913
vn -0.7242 0.4839 -0.4913
vn 0.0000 0.0000 1.0000
vn -0.4839 0.7242 -0.4913
vn -0.1699 0.8543 -0.4913
vn -0.0000 -0.0000 -1.0000
vn 0.1951 -0.0000 0.9808
vn 0.5556 -0.0000 0.8315
vn 0.8315 -0.0000 0.5556
vn 0.9808 -0.0000 0.1951
vn 0.9808 0.0000 -0.1951
vn 0.8315 0.0000 -0.5556
vn 0.5556 0.0000 -0.8315
vn 0.1951 0.0000 -0.9808
vn -0.1951 0.0000 -0.9808
vn -0.5556 0.0000 -0.8315
vn -0.8315 0.0000 -0.5556
vn -0.9808 0.0000 -0.1951
vn -0.9808 -0.0000 0.1951
vn -0.8315 -0.0000 0.5556
vn 0.0000 -1.0000 0.0000
vn -0.5556 -0.0000 0.8315
vn -0.1951 -0.0000 0.9808
vn 0.0000 1.0000 -0.0000
usemtl None
s off
f 1/1/1 2/2/1 4/3/1 3/4/1
f 3/4/2 4/3/2 6/5/2 5/6/2
f 5/6/3 6/5/3 8/7/3 7/8/3
f 7/8/4 8/7/4 10/9/4 9/10/4
f 9/10/5 10/9/5 12/11/5 11/12/5
f 11/12/6 12/11/6 14/13/6 13/14/6
f 13/14/7 14/13/7 16/15/7 15/16/7
f 15/16/8 16/15/8 18/17/8 17/18/8
f 17/18/9 18/17/9 20/19/9 19/20/9
f 19/20/10 20/19/10 22/21/10 21/22/10
f 21/22/11 22/21/11 24/23/11 23/24/11
f 23/24/12 24/23/12 26/25/12 25/26/12
f 25/26/13 26/25/13 28/27/13 27/28/13
f 27/28/14 28/27/14 30/29/14 29/30/14
f 4/31/15 2/32/15 32/33/15 30/34/15 28/35/15 26/36/15 24/37/15 22/38/15 20/39/15 18/40/15 16/41/15 14/42/15 12/43/15 10/44/15 8/45/15 6/46/15
f 29/30/16 30/29/16 32/47/16 31/48/16
f 31/48/17 32/47/17 2/49/17 1/50/17
f 1/51/18 3/52/18 5/53/18 7/54/18 9/55/18 11/56/18 13/57/18 15/58/18 17/59/18 19/60/18 21/61/18 23/62/18 25/63/18 27/64/18 29/65/18 31/66/18
f 33/67/19 34/68/19 36/69/19 35/70/19
f 35/70/20 36/69/20 38/71/20 37/72/20
f 37/72/21 38/71/21 40/73/21 39/74/21
f 39/74/22 40/73/22 42/75/22 41/76/22
f 41/76/23 42/75/23 44/77/23 43/78/23
f 43/78/24 44/77/24 46/79/24 45/80/24
f 45/80/25 46/79/25 48/81/25 47/82/25
f 47/82/26 48/81/26 50/83/26 49/84/26
f 49/84/27 50/83/27 52/85/27 51/86/27
f 51/86/28 52/85/28 54/87/28 53/88/28
f 53/88/29 54/87/29 56/89/29 55/90/29
f 55/90/30 56/89/30 58/91/30 57/92/30
f 57/92/31 58/91/31 60/93/31 59/94/31
f 59/94/32 60/93/32 62/95/32 61/96/32
f 36/97/33 34/98/33 64/99/33 62/100/33 60/101/33 58/102/33 56/103/33 54/104/33 52/105/33 50/106/33 48/107/33 46/108/33 44/109/33 42/110/33 40/111/33 38/112/33
f 61/96/34 62/95/34 64/113/34 63/114/34
f 63/114/35 64/113/35 34/115/35 33/116/35
f 33/117/36 35/118/36 37/119/36 39/120/36 41/121/36 43/122/36 45/123/36 47/124/36 49/125/36 51/126/36 53/127/36 55/128/36 57/129/36 59/130/36 61/131/36 63/132/36
f 65/133/37 66/134/37 68/135/37 67/136/37
f 67/136/38 68/135/38 70/137/38 69/138/38
f 69/138/39 70/137/39 72/139/39 71/140/39
f 71/140/40 72/139/40 74/141/40 73/142/40
f 73/142/41 74/141/41 76/143/41 75/144/41
f 75/144/42 76/143/42 78/145/42 77/146/42
f 77/146/43 78/145/43 80/147/43 79/148/43
f 79/148/44 80/147/44 82/149/44 81/150/44
f 81/150/45 82/149/45 84/151/45 83/152/45
f 83/152/46 84/151/46 86/153/46 85/154/46
f 85/154/47 86/153/47 88/155/47 87/156/47
f 87/156/48 88/155/48 90/157/48 89/158/48
f 89/158/49 90/157/49 92/159/49 91/160/49
f 91/160/50 92/159/50 94/161/50 93/162/50
f 68/163/51 66/164/51 96/165/51 94/166/51 92/167/51 90/168/51 88/169/51 86/170/51 84/171/51 82/172/51 80/173/51 78/174/51 76/175/51 74/176/51 72/177/51 70/178/51
f 93/162/52 94/161/52 96/179/52 95/180/52
f 95/180/53 96/179/53 66/181/53 65/182/53
f 65/183/54 67/184/54 69/185/54 71/186/54 73/187/54 75/188/54 77/189/54 79/190/54 81/191/54 83/192/54 85/193/54 87/194/54 89/195/54 91/196/54 93/197/54 95/198/54
