# Blender v2.80 (sub 55) OBJ File: ''
# www.blender.org
mtllib test_terrain.mtl
o Grid.001
v -5.000000 0.000000 0.000000
v 0.000000 5.000000 3.000000
v 0.000000 0.000000 0.000000
v -10.000000 -0.000000 0.000000
v -5.000000 5.000000 0.000000
v -0.000000 10.000000 0.000000
v -10.000000 5.000000 -2.000000
v -5.000000 10.000000 0.000000
v -10.000001 9.999999 0.000000
vt 0.500000 0.000000
vt 0.000000 0.000000
vt 0.000000 0.500000
vt 1.000000 0.000000
vt 0.500000 0.500000
vt 0.000000 1.000000
vt 1.000000 0.500000
vt 0.500000 1.000000
vt 1.000000 1.000000
vn 0.0000 -0.5145 0.8575
vn 0.0000 0.0000 1.0000
vn -0.4575 0.4575 0.7625
vn -0.3714 0.0000 0.9285
vn -0.5145 -0.0000 0.8575
vn -0.3482 0.3482 0.8704
vn 0.0000 -0.3714 0.9285
usemtl None.001
s 1
f 1/1/1 3/2/1 2/3/1
f 4/4/2 1/1/2 5/5/2
f 5/5/3 2/3/3 6/6/3
f 7/7/4 5/5/4 8/8/4
f 1/1/5 2/3/5 5/5/5
f 4/4/6 5/5/6 7/7/6
f 5/5/2 6/6/2 8/8/2
f 7/7/7 8/8/7 9/9/7
